HIERARCHY
ROOT Hips
{
	OFFSET -14.64140 90.27770 -84.91600
	CHANNELS 6 Xposition Yposition Zposition Zrotation Xrotation Yrotation
	JOINT Spine
	{
		OFFSET 0.00000 13.20850 -1.60436
		CHANNELS 3 Zrotation Xrotation Yrotation
		JOINT Spine1
		{
			OFFSET 0.00000 8.61716 0.00000
			CHANNELS 3 Zrotation Xrotation Yrotation
			JOINT Spine2
			{
				OFFSET 0.00000 8.61717 0.00000
				CHANNELS 3 Zrotation Xrotation Yrotation
				JOINT Spine3
				{
					OFFSET 0.00000 8.61717 0.00000
					CHANNELS 3 Zrotation Xrotation Yrotation
					JOINT Neck
					{
						OFFSET 0.00000 11.07920 1.10792
						CHANNELS 3 Zrotation Xrotation Yrotation
						JOINT Neck1
						{
							OFFSET 0.00000 7.08032 0.00000
							CHANNELS 3 Zrotation Xrotation Yrotation
							JOINT Head
							{
								OFFSET 0.00000 7.08031 0.00000
								CHANNELS 3 Zrotation Xrotation Yrotation
								End site
								{
									OFFSET 0.00000 0.00000 0.00000
								}
							}
						}
					}
					JOINT RightShoulder
					{
						OFFSET -0.01000 7.91373 5.19711
						CHANNELS 3 Zrotation Xrotation Yrotation
						JOINT RightArm
						{
							OFFSET -18.41580 0.00000 0.00000
							CHANNELS 3 Zrotation Xrotation Yrotation
							JOINT RightForeArm
							{
								OFFSET -29.11090 0.00000 0.00000
								CHANNELS 3 Zrotation Xrotation Yrotation
								JOINT RightHand
								{
									OFFSET -24.65040 0.00000 0.00000
									CHANNELS 3 Zrotation Xrotation Yrotation
									JOINT RightHandThumb1
									{
										OFFSET -5.35114 -0.85590 3.97906
										CHANNELS 3 Zrotation Xrotation Yrotation
										JOINT RightHandThumb2
										{
											OFFSET -4.52789 0.00000 0.00000
											CHANNELS 3 Zrotation Xrotation Yrotation
											JOINT RightHandThumb3
											{
												OFFSET -2.46976 0.00000 0.00000
												CHANNELS 3 Zrotation Xrotation Yrotation
												End site
												{
													OFFSET 0.00000 0.00000 0.00000
												}
											}
										}
									}
									JOINT RightHandIndex1
									{
										OFFSET -14.26970 0.00000 2.88139
										CHANNELS 3 Zrotation Xrotation Yrotation
										JOINT RightHandIndex2
										{
											OFFSET -5.48836 0.00000 0.00000
											CHANNELS 3 Zrotation Xrotation Yrotation
											JOINT RightHandIndex3
											{
												OFFSET -3.01859 0.00000 0.00000
												CHANNELS 3 Zrotation Xrotation Yrotation
												End site
												{
													OFFSET 0.00000 0.00000 0.00000
												}
											}
										}
									}
									JOINT RightHandMiddle1
									{
										OFFSET -14.26970 0.00000 -0.09147
										CHANNELS 3 Zrotation Xrotation Yrotation
										JOINT RightHandMiddle2
										{
											OFFSET -6.17441 0.00000 0.00000
											CHANNELS 3 Zrotation Xrotation Yrotation
											JOINT RightHandMiddle3
											{
												OFFSET -3.56743 0.00000 0.00000
												CHANNELS 3 Zrotation Xrotation Yrotation
												End site
												{
													OFFSET 0.00000 0.00000 0.00000
												}
											}
										}
									}
									JOINT RightHandRing1
									{
										OFFSET -12.69180 0.00000 -3.06433
										CHANNELS 3 Zrotation Xrotation Yrotation
										JOINT RightHandRing2
										{
											OFFSET -5.62556 0.00000 0.00000
											CHANNELS 3 Zrotation Xrotation Yrotation
											JOINT RightHandRing3
											{
												OFFSET -3.56744 0.00000 0.00000
												CHANNELS 3 Zrotation Xrotation Yrotation
												End site
												{
													OFFSET 0.00000 0.00000 0.00000
												}
											}
										}
									}
									JOINT RightHandPinky1
									{
										OFFSET -11.11390 0.00000 -6.03719
										CHANNELS 3 Zrotation Xrotation Yrotation
										JOINT RightHandPinky2
										{
											OFFSET -4.52789 0.00000 0.00000
											CHANNELS 3 Zrotation Xrotation Yrotation
											JOINT RightHandPinky3
											{
												OFFSET -2.46976 0.00000 0.00000
												CHANNELS 3 Zrotation Xrotation Yrotation
												End site
												{
													OFFSET 0.00000 0.00000 0.00000
												}
											}
										}
									}
								}
							}
						}
					}
					JOINT LeftShoulder
					{
						OFFSET 0.01000 7.91373 5.19711
						CHANNELS 3 Zrotation Xrotation Yrotation
						JOINT LeftArm
						{
							OFFSET 18.41580 0.00000 0.00000
							CHANNELS 3 Zrotation Xrotation Yrotation
							JOINT LeftForeArm
							{
								OFFSET 29.11090 0.00000 0.00000
								CHANNELS 3 Zrotation Xrotation Yrotation
								JOINT LeftHand
								{
									OFFSET 24.65040 0.00000 0.00000
									CHANNELS 3 Zrotation Xrotation Yrotation
									JOINT LeftHandThumb1
									{
										OFFSET 5.35114 -0.85590 3.97906
										CHANNELS 3 Zrotation Xrotation Yrotation
										JOINT LeftHandThumb2
										{
											OFFSET 4.52789 0.00000 0.00000
											CHANNELS 3 Zrotation Xrotation Yrotation
											JOINT LeftHandThumb3
											{
												OFFSET 2.46977 0.00000 0.00000
												CHANNELS 3 Zrotation Xrotation Yrotation
												End site
												{
													OFFSET 0.00000 0.00000 0.00000
												}
											}
										}
									}
									JOINT LeftHandIndex1
									{
										OFFSET 14.26970 0.00000 2.88139
										CHANNELS 3 Zrotation Xrotation Yrotation
										JOINT LeftHandIndex2
										{
											OFFSET 5.48836 0.00000 0.00000
											CHANNELS 3 Zrotation Xrotation Yrotation
											JOINT LeftHandIndex3
											{
												OFFSET 3.01859 0.00000 0.00000
												CHANNELS 3 Zrotation Xrotation Yrotation
												End site
												{
													OFFSET 0.00000 0.00000 0.00000
												}
											}
										}
									}
									JOINT LeftHandMiddle1
									{
										OFFSET 14.26970 0.00000 -0.09147
										CHANNELS 3 Zrotation Xrotation Yrotation
										JOINT LeftHandMiddle2
										{
											OFFSET 6.17440 0.00000 0.00000
											CHANNELS 3 Zrotation Xrotation Yrotation
											JOINT LeftHandMiddle3
											{
												OFFSET 3.56744 0.00000 0.00000
												CHANNELS 3 Zrotation Xrotation Yrotation
												End site
												{
													OFFSET 0.00000 0.00000 0.00000
												}
											}
										}
									}
									JOINT LeftHandRing1
									{
										OFFSET 12.69180 0.00000 -3.06433
										CHANNELS 3 Zrotation Xrotation Yrotation
										JOINT LeftHandRing2
										{
											OFFSET 5.62556 0.00000 0.00000
											CHANNELS 3 Zrotation Xrotation Yrotation
											JOINT LeftHandRing3
											{
												OFFSET 3.56744 0.00000 0.00000
												CHANNELS 3 Zrotation Xrotation Yrotation
												End site
												{
													OFFSET 0.00000 0.00000 0.00000
												}
											}
										}
									}
									JOINT LeftHandPinky1
									{
										OFFSET 11.11390 0.00000 -6.03719
										CHANNELS 3 Zrotation Xrotation Yrotation
										JOINT LeftHandPinky2
										{
											OFFSET 4.52789 0.00000 0.00000
											CHANNELS 3 Zrotation Xrotation Yrotation
											JOINT LeftHandPinky3
											{
												OFFSET 2.46976 0.00000 0.00000
												CHANNELS 3 Zrotation Xrotation Yrotation
												End site
												{
													OFFSET 0.00000 0.00000 0.00000
												}
											}
										}
									}
								}
							}
						}
					}
					JOINT pCube4
					{
						OFFSET 0.00000 10.91090 1.10792
						CHANNELS 3 Zrotation Xrotation Yrotation
						End site
						{
							OFFSET 0.00000 0.00000 0.00000
						}
					}
				}
			}
		}
	}
	JOINT RightUpLeg
	{
		OFFSET -9.98441 0.00000 0.00000
		CHANNELS 3 Zrotation Xrotation Yrotation
		JOINT RightLeg
		{
			OFFSET 0.00000 -42.11790 0.00000
			CHANNELS 3 Zrotation Xrotation Yrotation
			JOINT RightFoot
			{
				OFFSET 0.00000 -45.00020 -0.00001
				CHANNELS 3 Zrotation Xrotation Yrotation
				JOINT RightForeFoot
				{
					OFFSET 0.00000 -3.74820 0.00000
					CHANNELS 3 Zrotation Xrotation Yrotation
					JOINT RightToeBase
					{
						OFFSET 0.00000 0.06325 14.43120
						CHANNELS 3 Zrotation Xrotation Yrotation
						End site
						{
							OFFSET 0.00000 0.00000 0.00000
						}
					}
				}
			}
		}
	}
	JOINT LeftUpLeg
	{
		OFFSET 9.98441 0.00000 0.00000
		CHANNELS 3 Zrotation Xrotation Yrotation
		JOINT LeftLeg
		{
			OFFSET 0.00000 -42.11800 0.00000
			CHANNELS 3 Zrotation Xrotation Yrotation
			JOINT LeftFoot
			{
				OFFSET 0.00000 -45.00070 0.00000
				CHANNELS 3 Zrotation Xrotation Yrotation
				JOINT LeftForeFoot
				{
					OFFSET 0.00000 -3.74824 0.00000
					CHANNELS 3 Zrotation Xrotation Yrotation
					JOINT LeftToeBase
					{
						OFFSET 0.00000 0.06325 14.43110
						CHANNELS 3 Zrotation Xrotation Yrotation
						End site
						{
							OFFSET 0.00000 0.00000 0.00000
						}
					}
				}
			}
		}
	}
}
MOTION
Frames: 4
Frame Time: 0.050000
0.03240671572514567 0.011810267406172154 -0.038080441178823844 0.02668810001431418 0.0043535246900356 -0.010621173356863089 3.5731273924474345 4.591109336698509 -1.8806809706802827 -0.8076700709939995 3.520504742084932 0.4126958019095073 -0.5375380980396887 -0.644989395728614 -0.3690571576693306 -0.4627035859842307 -0.24343556406163025 -0.5133523447049498 -0.8643603829519347 10.967213126225708 0.5308686727090426 0.013251735838075762 -1.2489703852756664 1.3213306992114822 -0.02617671791488955 -17.756026834139412 0.10642242579591213 -7.228884625545818 2.9967086583391427 -15.952944092809377 76.20452276615337 -0.7747109707464801 6.139095701987048 7.739666385918679 3.1878628628823633 86.60072095325116 8.915743579339447 -0.1928140054422286 -2.333061474445784 4.564372486509129 -0.16559197625233216 -1.593648731534691 0.04773652447267784 -0.0368017521192644 -56.20062351168385 0.0279274374354795 0.0383182929313883 -56.21314494721213 -38.763878824072094 0.005686204624334255 -0.0123971363286761 0.01726692621968735 0.00619149222483016 0.015548596621009032 -0.03732095744050283 -0.0336149173699182 0.010727881899009886 -36.683047723193525 0.04417248624716696 -0.014568892120385762 0.04901726217210492 -0.011130151092747453 0.020102095727330717 0.0069884183220575635 -0.013499294679027378 0.045048547741352626 -19.712828016649137 -0.04174876568219766 0.007741602765364054 0.022018021760096262 0.03648265032235194 0.02419061620560291 -0.004672586397461159 0.032970567803837815 -0.004168159454153561 24.02884111008067 0.04381403225975736 -0.009656022899472143 28.84500802141324 -0.017778753175093094 -0.012235928955803412 28.872995609295714 -0.012898983343459704 -0.005958591940874079 9.491306633953858 2.387955019003063 13.368020507581342 -68.66744724305852 18.9762728063629 -21.842402377317324 -6.200948123292609 -2.6613359733232076 -88.19542744452994 -7.791745268363339 -3.1219132433296264 0.022712577872555574 -0.49259514400253973 0.04329734785501262 -8.152155859450552 0.014645179820326253 -0.047154176918475864 44.60007963651036 0.018003474746631998 -0.002119852870752172 44.57878272715707 12.43443212797335 0.01692422208892976 0.03221084835291531 -0.014863066712618599 -0.04393594364941484 -0.007129674330616337 0.03383320951136969 -0.047665121810688514 0.04320468794803218 11.150897295223986 -0.03863589516939597 0.021593716008669498 -0.048402676608007 -0.006399412849146744 0.04120456073197437 -0.00244703854472273 0.02967598952564393 -0.02427026876726124 4.724536773895157 0.0010397841475701022 -0.015036080276813423 0.007839491604399736 -0.01905436413817861 -0.005017179896756887 0.0008603172874177338 -0.009868055003877461 0.030359502071267835 -5.58034330148964 -0.04071070741076997 0.045172414075625666 -6.7459191128772815 -0.03547085622503814 -0.03965476529157991 -6.718573863063176 -0.042507503916225486 -0.00209856498954092 0.01171233057545912 0.017701656114530194 0.044838618845830104 8.0699655870293 3.5376661450952804 -19.21149664263907 -0.024209882722263168 10.402859539783872 -0.01079682944427763 -5.670544555252603 -15.685148286256116 3.192571189434337 0.022650791444340106 0.04437179273211237 0.01621703222324583 0.020732813053839873 4.703094399202055 -0.016290723073279105 12.508319272587254 -8.202094776986312 6.889862055502132 -0.024943132327800595 46.3753347895554 0.05117613092118779 -4.366129161967265 -14.762356200453402 -3.822219893575691 0.034213294042781055 -0.03447359676551357 0.026547208334805773 0.01331890966302044 -10.73976346846889 -0.04497836654960055 
0.014301218651259197 0.027780486713090996 -0.0213608131194865 -0.012658906252371952 0.009819209926531552 -0.0025143586129931427 3.5354053019893197 4.530939317218155 -1.8197939346183725 -0.8663257594243345 3.503221875270201 0.41420965974368973 -0.5880955338534928 -0.6582018314043154 -0.3731936798392117 -0.4271212373442444 -0.16714432054086653 -0.5413794636559977 -0.722895074828869 11.179309388957291 0.3408340989825279 -0.02158384191452373 -1.129344811481018 0.8397259424713772 0.037695780579906565 -17.428652029282983 0.035216804796959676 -7.1750209337746185 2.9134342241427915 -16.044430459646634 75.27965259937955 -0.24084600773409104 7.158826752785613 8.330392247968016 3.4965117966688717 86.6418934582019 9.381737419506763 -0.25607278852581733 -2.3535256474791653 4.540377316530568 -0.1079962642177353 -1.6384586511447052 -0.004547599390875619 -0.004137477631492922 -56.26520591752366 0.046858023250888 -0.022251753823837706 -56.22488951855221 -38.75173924042271 0.02119918966846124 -0.02668362486580869 -0.010324749494813266 -0.046720562831522344 -0.04895598047881686 -0.010518031339397533 -0.0207076157467672 0.010026367219396003 -36.683188187993025 0.024254128580974713 -0.049481369359382715 0.0068713365656188985 0.039957406989652194 0.013190429721242748 0.006106121693952678 0.0482175137262106 -0.03321622639394936 -19.770448599554133 0.013861957199675333 0.0052391700001018495 0.02819963913965033 -0.0014329608284527641 0.029163063722530108 0.030074870370457408 -0.012132350357290317 -0.03313490996061661 24.018168313570758 0.004701360512534542 -0.03223261411461357 28.844945036375996 -0.03290260541551328 0.010121785811752021 28.81968595201062 0.022772266381618136 0.0023223376839462927 9.235346074776368 2.3153119162851543 13.378615039339275 -68.25162675506384 20.495169627679307 -21.811228150018575 -5.640184407772335 -1.9619084861067986 -88.60994389096501 -9.039938555182546 -3.185528040419257 0.28703447312134506 -0.4552072101128939 0.04872259649963571 -8.137768749037708 0.012433845796235441 -0.0026025533764302416 44.6034043347577 0.029108271780231305 0.02393897015430522 44.58067598912566 12.45473126984778 0.01745250157350849 0.021897853506136492 -0.018561995124468645 0.03808276861959686 -0.021856644609822333 0.04374025087669585 0.02160944768521501 0.01448410368202618 11.129174426011575 0.02341681270754391 -0.029634680614558068 -0.020575830787911552 -0.02228166731414326 0.013344528827432615 -0.04566131911616526 0.011727361251064699 0.008419482934065785 4.797182333792592 -0.01709433838264082 0.014476294730938088 0.01737048286590621 0.0007212519412229076 0.021973112384536832 0.02058520878301236 0.019247815136130702 -0.007700787281299222 -5.640956321727862 -0.041382991382787206 -0.046228023562665074 -6.712614689941968 -0.02722248966822137 -0.04276839652674685 -6.707225018282156 -0.04970775917764465 -0.04946722538021314 0.020733161513393147 -0.01690219757062069 0.0027961938660681367 8.061683292894493 3.499245208945117 -19.171099465689526 -0.02470686262303189 10.418371516867065 0.013470387772292203 -5.628292523440051 -15.652524944460586 3.1847873306999355 -0.03758518633930449 0.0018371246092419643 -0.030247152910294825 0.031084653726556347 4.677513284172705 -0.009037608616893861 12.464575068079638 -8.259902701950452 6.917756479795576 -0.02223631611027527 46.354223218408045 -0.029733245346970145 -4.361288100615688 -14.730018982790446 -3.8751221869352865 2.4343598146676535e-05 -0.04743096224307462 0.012818119125422002 -0.020249347601102512 -10.757886244222579 0.027811046325295793 
-0.04569743103842708 0.013833541623275967 -0.03377003047566022 0.008041794819028053 0.025323073195380453 0.00016524441011605303 3.467474878346874 4.45569148761231 -1.8341829497453626 -0.8227223520954351 3.528687931959799 0.3783088994558335 -0.6522928622309325 -0.5958830590037056 -0.3685825229591143 -0.3598104292112918 -0.1653260846881556 -0.4874612421727145 -0.6770779127777506 11.280523130669234 0.1723189406698167 0.05619812748360699 -0.9797995656799069 0.538813975712611 0.0397629544170998 -17.137225765761052 -0.0074032124211951544 -7.232388320670954 2.915507929174621 -15.996491397177733 74.39074528655941 -0.4070568618648486 8.05776435905418 8.724188826456864 3.682546053622421 87.22249847663593 9.765860991152366 -0.262882020289288 -2.490797684708611 4.534337845754133 -0.1326719664567343 -1.5857495065245442 -0.02683151891848851 -0.007118060758856523 -56.276793909903574 -0.046561355132240544 0.014099406058347553 -56.25497433714411 -38.781934067792434 0.02009076756349432 0.028615282650425043 0.0226334352040539 0.028480478783483348 -0.030373637546688242 0.0014421318274302165 -0.037928867876904464 -0.009753326394437944 -36.64884102854357 0.028597952333836982 0.04481615706847982 -0.0026042800133431617 -0.02426135050215742 -0.04703464845713607 -0.010314102614766408 -0.0017546584395622816 0.005459321878898276 -19.75828045617385 0.02670233477018182 -0.035817743940802234 -0.04144643448566485 -0.001908829874565369 0.011674632616317222 -0.025671806894847674 0.0002808358677693567 0.012042116366463145 24.04789598309712 0.03800074919826023 -0.0281989705853961 28.869918298508342 0.028752599144139784 0.012273140851530384 28.852362350887496 -0.01441770003497983 -0.0004234134409020238 9.042365920695337 2.282969009753124 13.427667047920643 -67.94166784710585 21.420841348696907 -21.609455245375937 -5.08851828211876 -1.6713509439238696 -89.07031228156953 -10.160104861450433 -3.370354807486819 0.5742682521136445 -0.42778818748071656 0.09618673105096444 -8.091525081026754 -0.03973314100309596 -0.02480684003078665 44.57088115026775 -0.032357251844004786 0.005065552978235288 44.57912935652101 12.43291334417782 -0.020091105221338716 -0.014488216260298418 -0.03125871891599836 0.01559735516616236 0.029951275188861582 0.0012577188401431127 -0.01866921132433423 -0.02803738925705825 11.145560123628545 0.04549829322728665 -0.007921883092313451 0.02359222215835566 0.012286189381740722 0.01575832094825351 0.02032232407552831 0.03224275848184713 0.019771389215127187 4.731486132288636 0.004902627634898676 0.038628846732243954 -0.025880977552089145 0.017090198274250724 0.014117999303656375 0.04980385775239827 -0.020113001842127182 -0.028303496417739937 -5.629808733524099 0.004595196469170896 -0.019764726253479428 -6.7289746700789665 0.01460363895079684 -0.04513483692396463 -6.767087947372875 -0.0036149088715600195 -0.010411079552442139 0.018151838249400695 -0.012382549563946493 0.008791107996115634 8.025175789730147 3.4765550194317694 -19.20289804027227 0.030742982971398755 10.3692690831804 0.03209592040903164 -5.6033511448262745 -15.704879090223347 3.2085283380897165 -0.036184839724962344 -0.011339041858557513 0.012203371177370486 0.032921311686394276 4.723897076791807 -0.010763160927331978 12.453850927500476 -8.260605482470188 6.867196312525195 -0.019000388927360504 46.39838008171675 0.023442456583858177 -4.3563155471343045 -14.766834079398398 -3.8578389970486415 -0.04759543309183353 -0.04219633553109141 0.008047985031068319 -0.027636620104708687 -10.761978190392252 0.020034305979354003 
-0.022972478630162378 0.006007077731143203 -0.02939486805796443 -0.03750942925154086 -0.016411143538308567 0.03664384931338106 3.323478164335854 4.4201341756199755 -1.7981119189520576 -0.7977591576459017 3.536197731409005 0.3963818646831899 -0.5904009656043783 -0.6136182214129979 -0.3431584871523998 -0.3284336577309949 -0.11488164859281971 -0.547322979630882 -0.4971112791897139 11.419042980135488 -0.009923828927391597 -0.003969392057715675 -0.7501469967445724 0.1089217270317644 0.09302214616241414 -16.765629071366757 0.014213856183799245 -7.272607032714371 2.916055074366593 -16.009343039288087 73.35157349811261 -1.2060185739404496 8.716877496695613 9.653819956940252 3.59641555940218 87.83659418593463 10.379900451495214 -0.2593211219855927 -2.7217634764512577 4.548494496919616 -0.15016223823410552 -1.5564130689568996 -0.037327510635135834 0.004283489259085214 -56.231230083200764 -0.0306272491218749 -0.02626873197730505 -56.202660386099076 -38.7475482435478 -0.019553655866810387 -0.004280366851759939 0.024886766234476065 -0.024747057813589504 -0.031247908892169343 -0.006302774935268316 0.003967540213262514 0.01698373181794427 -36.662852565158666 0.013983333782690158 0.010394474845263138 0.029313697770405732 0.029874680140250784 0.030493313257337857 -0.004118493932524824 0.010714646495349407 0.025490313281011628 -19.7884208937238 -0.013130154774337 -0.015666159010485077 -0.048683011271362445 -0.011501459568350655 0.030043692775079175 -0.03246848039145426 0.011855565958913569 -0.024199240727577863 24.06718137335657 -0.04989609804631964 -0.02029229522185701 28.83771740598232 0.009937498266738893 0.04934112782073888 28.82600570997629 -0.005768031586250765 -0.014639771002889655 8.804618069067594 2.259156046169061 13.369440940915958 -67.49704228568395 21.97973483967327 -20.945060338169245 -6.011481307745436 -1.4290578071084352 -89.42542847089102 -11.157780752441411 -3.6876524854300463 0.7914682970598236 -0.5029558020196419 0.04394859381966315 -8.119363172608944 0.043279982687344475 -0.007207652459971578 44.57228630314573 0.009744644092262214 0.03813080892380264 44.594613911113704 12.435214658026132 -0.0003526265569918234 -0.02406573974012533 -0.015674375389100954 -0.008578769411219642 -0.006919747650387567 0.009369988054167508 -0.038100080098412877 0.04817390173166564 11.061195881140208 0.025487129005081842 -0.042177619457487096 -0.016678115183131916 -0.03800662909240004 -0.03163012300715657 0.014276866936426906 -0.04098159112035242 0.011526536744229206 4.797200057789804 -0.0031499147239626487 0.009479066654028551 0.007989101505496768 0.00042689366006869124 -0.018664151959674618 0.038114187341264 0.010695316872318887 -0.013633895524895964 -5.559428962438156 -0.02674004370435668 -0.003975017566857537 -6.767917248300856 -0.030748317055516547 0.026314689865262968 -6.724284512549922 0.01563599661363106 0.02244746272685726 -0.017707421715658558 0.039010350978302286 -0.016992437225703875 8.000773268063838 3.4648447432660263 -19.197340819994054 0.009199240249188681 10.384686053056424 -0.03236636240851902 -5.6017346509279315 -15.679058465505765 3.1934091080255453 0.015438815844618498 -0.04580153426337245 -0.04017844980497745 0.041520799599555326 4.746900172931909 0.04143385512415978 12.447704175759675 -8.207496351365338 6.843796682852647 -0.0004275073551996709 46.40034844956837 -0.006727392882465504 -4.297740806081462 -14.70832600402246 -3.8162916511139144 0.00424303706327622 -0.01808348052815292 0.005758923776872056 -0.0017056218500658947 -10.746963445141732 0.00457868741849643 
